<svg xmlns="http://www.w3.org/2000/svg" x="0px" y="0px"
	 width="110px" height="69px" viewBox="0 0 110 69" enable-background="new 0 0 110 69" xml:space="preserve">
<g>
	<g>
		<path fill="#BDBCBC" d="M76.75,49.024l6.707-1.648l-7.77,0.449l7.418-3.992c0,0-5.436,1.77-8.393,2.617l6.217-5.834
			c0,0-4.475,2.957-7.193,4.645c1.359-2.467,3.828-6.838,3.787-6.781c0.008-0.016-3.361,3.469-5.199,5.385
			c0.688-2.777,1.721-6.807,1.703-6.758c0-0.01-1.748,3.842-2.924,6.459l-0.26-7.502l-1.49,7.838l-2.421-7.162l0.912,6.848
			l-5.029-5.793l3.571,6.637l-6.628-3.709c2.096,2.004,5.35,4.803,7.956,5.826C70.727,47.733,72.877,48.915,76.75,49.024z"/>
		<path fill="#929291" d="M89.95,37.11l-3.713,5.42c-7.238-4.35-16.085-8.295-24.065-5.293c-2.589,1.049-2.908,1.186-5.268,2.826
			c-0.271-0.18-1.609-0.158-1.787-0.287c5.641-5.547,12.219-10.061,22.038-8.276C82.213,32.397,86.62,34.616,89.95,37.11z"/>
		<path fill="#929291" d="M63.949,45.25c0,0,9.968,5.719,18.151,4.115c-2.85,2.953-5.146,4.32-14.004,4.297
			c-18.776-0.023-25.534-17.064-41.5-17.027c-2.453,0.211-4.666,1.637-5.507,4.113c1.12-7.463,11.981-10.012,19.344-8.361
			C50.971,35.334,53.905,41.098,63.949,45.25z"/>
		<path fill="#929291" d="M24.694,43.586c2.833,5.283,8.28,6.09,14.06,5.67c4.476-0.465,6.337-2.027,7.528-2.781
			c0.534-0.008,1.343,0.293,1.989,0.617c-5.59,4.785-14.749,7.359-22.128,3.811c-6.241-3.484-6.398-10.359-1.922-12.025
			C23.349,39.684,23.774,41.854,24.694,43.586z"/>
	</g>
	<g>
		<path fill="#1D1C1A" d="M28.183,24.059c-0.977,0.244-1.883,0.367-2.719,0.367c-1.385,0-2.483-0.34-3.295-1.02
			s-1.218-1.598-1.218-2.752c0-1.131,0.403-2.037,1.212-2.721c0.808-0.684,1.877-1.027,3.207-1.027c0.984,0,1.894,0.096,2.729,0.289
			l0.185,1.412h-0.445l-0.018-0.082c-0.094-0.424-0.349-0.752-0.766-0.986s-0.957-0.35-1.622-0.35c-0.914,0-1.669,0.324-2.259,0.973
			s-0.887,1.477-0.887,2.486c0,1.045,0.304,1.889,0.908,2.529c0.605,0.643,1.396,0.963,2.376,0.963c1.319,0,2.087-0.461,2.302-1.381
			l0.019-0.076h0.457L28.183,24.059z"/>
		<path fill="#1D1C1A" d="M36.071,24.426c-1.284,0-2.335-0.354-3.152-1.055c-0.818-0.705-1.228-1.607-1.228-2.709
			c0-1.1,0.409-2,1.228-2.701c0.817-0.703,1.868-1.055,3.152-1.055c1.159,0,2.108,0.268,2.845,0.803
			c0.473,0.342,0.845,0.779,1.121,1.309c0.275,0.529,0.413,1.08,0.413,1.645c0,1.102-0.409,2.004-1.228,2.709
			C38.405,24.073,37.354,24.426,36.071,24.426z M36.071,24.141c0.871,0,1.589-0.324,2.15-0.975c0.562-0.652,0.844-1.486,0.844-2.5
			c0-1.012-0.282-1.844-0.844-2.498c-0.562-0.652-1.279-0.979-2.15-0.979c-0.872,0-1.59,0.326-2.151,0.979
			c-0.562,0.654-0.845,1.486-0.845,2.498c0,1.014,0.28,1.848,0.842,2.5C34.476,23.817,35.195,24.141,36.071,24.141z"/>
		<path fill="#1D1C1A" d="M45.485,18.713v4.291c0,0.381,0.063,0.629,0.189,0.746c0.127,0.117,0.396,0.176,0.809,0.176h0.106v0.285
			h-2.857v-0.285h0.071c0.407,0,0.674-0.059,0.8-0.176c0.123-0.117,0.186-0.365,0.186-0.746v-4.875l-0.179-0.193
			c-0.346-0.357-0.664-0.535-0.957-0.535h-0.107v-0.283h1.767l5.449,5.201v-3.994c0-0.381-0.064-0.629-0.193-0.746
			c-0.129-0.119-0.4-0.178-0.817-0.178h-0.094v-0.283h2.852v0.283h-0.107c-0.408,0-0.677,0.059-0.805,0.178
			c-0.13,0.117-0.194,0.365-0.194,0.746L51.4,24.426L45.485,18.713z"/>
		<path fill="#1D1C1A" d="M58.844,24.211h-3.41v-0.285h0.095c0.415,0,0.688-0.059,0.816-0.176c0.129-0.117,0.193-0.365,0.193-0.746
			v-4.68c0-0.381-0.064-0.629-0.193-0.746c-0.128-0.119-0.401-0.178-0.816-0.178h-0.095v-0.283h3.41v0.283h-0.089
			c-0.417,0-0.689,0.059-0.82,0.178c-0.131,0.117-0.196,0.365-0.196,0.746v4.68c0,0.377,0.065,0.627,0.196,0.744
			c0.131,0.119,0.403,0.178,0.82,0.178h0.089V24.211z"/>
		<path fill="#1D1C1A" d="M69.156,24.059c-0.978,0.244-1.883,0.367-2.719,0.367c-1.385,0-2.483-0.34-3.295-1.02
			s-1.218-1.598-1.218-2.752c0-1.131,0.404-2.037,1.211-2.721c0.809-0.684,1.878-1.027,3.207-1.027c0.984,0,1.895,0.096,2.731,0.289
			l0.184,1.412h-0.446l-0.018-0.082c-0.094-0.424-0.35-0.752-0.766-0.986s-0.957-0.35-1.622-0.35c-0.915,0-1.668,0.324-2.259,0.973
			s-0.885,1.477-0.885,2.486c0,1.045,0.302,1.889,0.906,2.529c0.605,0.643,1.397,0.963,2.376,0.963c1.319,0,2.087-0.461,2.304-1.381
			l0.016-0.076h0.458L69.156,24.059z"/>
		<path fill="#1D1C1A" d="M74.926,20.627v2.41c0,0.307,0.166,0.518,0.5,0.639c0.332,0.123,0.918,0.182,1.756,0.182h0.248
			c0.365,0,0.637-0.07,0.813-0.213s0.301-0.396,0.375-0.76l0.018-0.086h0.457l-0.184,1.539c-0.752-0.039-1.309-0.061-1.676-0.061
			c-0.389,0-0.848-0.01-1.377-0.035c-0.518-0.02-0.828-0.031-0.936-0.031h-2.299v-0.285h0.107c0.395,0,0.662-0.061,0.797-0.184
			c0.133-0.125,0.201-0.369,0.201-0.738v-4.666c0-0.395-0.063-0.646-0.188-0.764s-0.396-0.174-0.811-0.174h-0.107v-0.283h6.055
			l0.184,1.313h-0.457l-0.018-0.098c-0.074-0.398-0.223-0.643-0.445-0.732c-0.223-0.088-0.805-0.131-1.744-0.131h-1.27v2.875h1.355
			c0.635,0,1.039-0.043,1.215-0.127s0.266-0.277,0.266-0.576v-0.078h0.457v1.848h-0.457v-0.07c0-0.268-0.074-0.459-0.221-0.576
			c-0.119-0.092-0.539-0.137-1.26-0.137H74.926z"/>
		<path fill="#1D1C1A" d="M85.317,17.469h-0.941c-0.703,0-1.191,0.072-1.461,0.219s-0.445,0.432-0.527,0.861l-0.018,0.09h-0.488
			l0.225-1.65c1.027,0.084,2.098,0.129,3.211,0.129h1.24c1.113,0,2.184-0.045,3.209-0.129l0.227,1.65H89.51l-0.023-0.09
			c-0.084-0.43-0.26-0.715-0.529-0.861s-0.756-0.219-1.461-0.219h-0.939v5.535c0,0.383,0.076,0.631,0.229,0.748
			s0.475,0.174,0.967,0.174h0.088v0.285h-3.809v-0.285h0.09c0.496,0,0.82-0.057,0.969-0.174c0.15-0.117,0.227-0.365,0.227-0.748
			V17.469z"/>
	</g>
</g>
</svg>
