<svg id="narrative-chart" width="1000" height="661.9615384615385">
<g class="scene" transform="translate(258.5,0.5)">
<rect width="20" height="47" y="0" x="0" rx="10">
</rect>
<circle cx="10" cy="16.5" r="2" class="appearance explorador"></circle>
<circle cx="10" cy="33.5" r="2" class="appearance explorador"></circle>
</g>
<g class="scene" transform="translate(407.5,9.5)">
<rect width="20" height="234" y="0" x="0" rx="10">
</rect>
<circle cx="10" cy="16.5" r="2" class="appearance explorador"></circle>
<circle cx="10" cy="33.5" r="2" class="appearance aliados"></circle>
<circle cx="10" cy="50.5" r="2" class="appearance explorador"></circle>
<circle cx="10" cy="67.5" r="2" class="appearance enemigos"></circle>
<circle cx="10" cy="84.5" r="2" class="appearance enemigos"></circle>
<circle cx="10" cy="101.5" r="2" class="appearance traidor"></circle>
<circle cx="10" cy="118.5" r="2" class="appearance traidor"></circle>
<circle cx="10" cy="135.5" r="2" class="appearance traidor"></circle>
<circle cx="10" cy="152.5" r="2" class="appearance traidor"></circle>
<circle cx="10" cy="169.5" r="2" class="appearance traidor"></circle>
<circle cx="10" cy="186.5" r="2" class="appearance traidor"></circle>
<circle cx="10" cy="203.5" r="2" class="appearance explorador"></circle>
<circle cx="10" cy="220.5" r="2" class="appearance enemigos"></circle>
</g>
<g class="scene" transform="translate(555.5,122.5)">
<rect width="20" height="319" y="0" x="0" rx="10">
</rect>
<circle cx="10" cy="16.5" r="2" class="appearance explorador"></circle>
<circle cx="10" cy="33.5" r="2" class="appearance explorador"></circle>
<circle cx="10" cy="50.5" r="2" class="appearance explorador"></circle>
<circle cx="10" cy="67.5" r="2" class="appearance explorador"></circle>
<circle cx="10" cy="84.5" r="2" class="appearance enemigos"></circle>
<circle cx="10" cy="101.5" r="2" class="appearance aliados"></circle>
<circle cx="10" cy="118.5" r="2" class="appearance aliados"></circle>
<circle cx="10" cy="135.5" r="2" class="appearance traidor"></circle>
<circle cx="10" cy="152.5" r="2" class="appearance aliados"></circle>
<circle cx="10" cy="169.5" r="2" class="appearance aliados"></circle>
<circle cx="10" cy="186.5" r="2" class="appearance enemigos"></circle>
<circle cx="10" cy="203.5" r="2" class="appearance aliados"></circle>
<circle cx="10" cy="220.5" r="2" class="appearance aliados"></circle>
<circle cx="10" cy="237.5" r="2" class="appearance aliados"></circle>
<circle cx="10" cy="254.5" r="2" class="appearance enemigos"></circle>
<circle cx="10" cy="271.5" r="2" class="appearance explorador"></circle>
<circle cx="10" cy="288.5" r="2" class="appearance explorador"></circle>
<circle cx="10" cy="305.5" r="2" class="appearance explorador"></circle>
</g>
<g class="scene" transform="translate(703.5,378.5)">
<rect width="20" height="234" y="0" x="0" rx="10">
</rect>
<circle cx="10" cy="16.5" r="2" class="appearance explorador"></circle>
<circle cx="10" cy="33.5" r="2" class="appearance aliados"></circle>
<circle cx="10" cy="50.5" r="2" class="appearance aliados"></circle>
<circle cx="10" cy="67.5" r="2" class="appearance aliados"></circle>
<circle cx="10" cy="84.5" r="2" class="appearance explorador"></circle>
<circle cx="10" cy="101.5" r="2" class="appearance aliados"></circle>
<circle cx="10" cy="118.5" r="2" class="appearance aliados"></circle>
<circle cx="10" cy="135.5" r="2" class="appearance explorador"></circle>
<circle cx="10" cy="152.5" r="2" class="appearance aliados"></circle>
<circle cx="10" cy="169.5" r="2" class="appearance aliados"></circle>
<circle cx="10" cy="186.5" r="2" class="appearance aliados"></circle>
<circle cx="10" cy="203.5" r="2" class="appearance aliados"></circle>
<circle cx="10" cy="220.5" r="2" class="appearance traidor"></circle>
</g>
<g class="scene" transform="translate(852.5,470.5)">
<rect width="20" height="81" y="0" x="0" rx="10">
</rect>
<circle cx="10" cy="16.5" r="2" class="appearance explorador"></circle>
<circle cx="10" cy="33.5" r="2" class="appearance enemigos"></circle>
<circle cx="10" cy="50.5" r="2" class="appearance enemigos"></circle>
<circle cx="10" cy="67.5" r="2" class="appearance traidor"></circle>
</g>
<path class="link explorador" d="M110,16.5C189.16666666666669,16.5 189.16666666666669,16.5 268.33333333333337,16.5"></path>
<path class="link explorador" d="M268.33333333333337,16.5C342.5,16.5 342.5,25.692307692307693 416.6666666666667,25.692307692307693"></path>
<path class="link explorador" d="M416.6666666666667,25.692307692307693C490.83333333333337,25.692307692307693 490.83333333333337,138.44444444444446 565,138.44444444444446"></path>
<path class="link explorador" d="M110,33.5C189.16666666666669,33.5 189.16666666666669,33.5 268.33333333333337,33.5"></path>
<path class="link explorador" d="M268.33333333333337,33.5C416.6666666666667,33.5 416.6666666666667,155.44444444444446 565,155.44444444444446"></path>
<path class="link explorador" d="M565,155.44444444444446C713.3333333333334,155.44444444444446 713.3333333333334,486 861.6666666666667,486"></path>
<path class="link aliados" d="M332.5,54.5C374.58333333333337,54.5 374.58333333333337,42.69230769230769 416.6666666666667,42.69230769230769"></path>
<path class="link explorador" d="M332.5,69.5C374.58333333333337,69.5 374.58333333333337,59.69230769230769 416.6666666666667,59.69230769230769"></path>
<path class="link explorador" d="M416.6666666666667,59.69230769230769C490.83333333333337,59.69230769230769 490.83333333333337,172.44444444444446 565,172.44444444444446"></path>
<path class="link explorador" d="M565,172.44444444444446C639.1666666666667,172.44444444444446 639.1666666666667,394.46153846153845 713.3333333333334,394.46153846153845"></path>
<path class="link enemigos" d="M332.5,84.5C374.58333333333337,84.5 374.58333333333337,76.6923076923077 416.6666666666667,76.6923076923077"></path>
<path class="link enemigos" d="M332.5,99.5C374.58333333333337,99.5 374.58333333333337,93.6923076923077 416.6666666666667,93.6923076923077"></path>
<path class="link traidor" d="M332.5,114.5C374.58333333333337,114.5 374.58333333333337,110.6923076923077 416.6666666666667,110.6923076923077"></path>
<path class="link traidor" d="M332.5,129.5C374.58333333333337,129.5 374.58333333333337,127.6923076923077 416.6666666666667,127.6923076923077"></path>
<path class="link traidor" d="M332.5,144.69230769230768C374.58333333333337,144.69230769230768 374.58333333333337,144.69230769230768 416.6666666666667,144.69230769230768"></path>
<path class="link traidor" d="M332.5,161.69230769230768C374.58333333333337,161.69230769230768 374.58333333333337,161.69230769230768 416.6666666666667,161.69230769230768"></path>
<path class="link traidor" d="M332.5,178.69230769230768C374.58333333333337,178.69230769230768 374.58333333333337,178.69230769230768 416.6666666666667,178.69230769230768"></path>
<path class="link traidor" d="M332.5,195.69230769230768C374.58333333333337,195.69230769230768 374.58333333333337,195.69230769230768 416.6666666666667,195.69230769230768"></path>
<path class="link explorador" d="M332.5,212.69230769230768C374.58333333333337,212.69230769230768 374.58333333333337,212.69230769230768 416.6666666666667,212.69230769230768"></path>
<path class="link explorador" d="M416.6666666666667,212.69230769230768C490.83333333333337,212.69230769230768 490.83333333333337,189.44444444444446 565,189.44444444444446"></path>
<path class="link enemigos" d="M332.5,229.69230769230768C374.58333333333337,229.69230769230768 374.58333333333337,229.69230769230768 416.6666666666667,229.69230769230768"></path>
<path class="link enemigos" d="M416.6666666666667,229.69230769230768C490.83333333333337,229.69230769230768 490.83333333333337,206.44444444444446 565,206.44444444444446"></path>
<path class="link aliados" d="M480.8333333333333,250.69230769230768C522.9166666666666,250.69230769230768 522.9166666666666,223.44444444444446 565,223.44444444444446"></path>
<path class="link aliados" d="M480.8333333333333,265.6923076923077C522.9166666666666,265.6923076923077 522.9166666666666,240.44444444444446 565,240.44444444444446"></path>
<path class="link traidor" d="M480.8333333333333,280.6923076923077C522.9166666666666,280.6923076923077 522.9166666666666,257.44444444444446 565,257.44444444444446"></path>
<path class="link aliados" d="M480.8333333333333,295.6923076923077C522.9166666666666,295.6923076923077 522.9166666666666,274.44444444444446 565,274.44444444444446"></path>
<path class="link aliados" d="M565,274.44444444444446C639.1666666666667,274.44444444444446 639.1666666666667,411.46153846153845 713.3333333333334,411.46153846153845"></path>
<path class="link aliados" d="M480.8333333333333,310.6923076923077C522.9166666666666,310.6923076923077 522.9166666666666,291.44444444444446 565,291.44444444444446"></path>
<path class="link enemigos" d="M480.8333333333333,325.6923076923077C522.9166666666666,325.6923076923077 522.9166666666666,308.44444444444446 565,308.44444444444446"></path>
<path class="link aliados" d="M480.8333333333333,340.6923076923077C522.9166666666666,340.6923076923077 522.9166666666666,325.44444444444446 565,325.44444444444446"></path>
<path class="link aliados" d="M480.8333333333333,355.6923076923077C522.9166666666666,355.6923076923077 522.9166666666666,342.44444444444446 565,342.44444444444446"></path>
<path class="link aliados" d="M480.8333333333333,370.6923076923077C522.9166666666666,370.6923076923077 522.9166666666666,359.44444444444446 565,359.44444444444446"></path>
<path class="link enemigos" d="M480.8333333333333,385.6923076923077C522.9166666666666,385.6923076923077 522.9166666666666,376.44444444444446 565,376.44444444444446"></path>
<path class="link explorador" d="M480.8333333333333,400.6923076923077C522.9166666666666,400.6923076923077 522.9166666666666,393.44444444444446 565,393.44444444444446"></path>
<path class="link explorador" d="M480.8333333333333,415.6923076923077C522.9166666666666,415.6923076923077 522.9166666666666,410.44444444444446 565,410.44444444444446"></path>
<path class="link explorador" d="M480.8333333333333,430.6923076923077C522.9166666666666,430.6923076923077 522.9166666666666,427.44444444444446 565,427.44444444444446"></path>
<path class="link aliados" d="M629.1666666666667,448.44444444444446C671.25,448.44444444444446 671.25,428.46153846153845 713.3333333333334,428.46153846153845"></path>
<path class="link aliados" d="M629.1666666666667,463.44444444444446C671.25,463.44444444444446 671.25,445.46153846153845 713.3333333333334,445.46153846153845"></path>
<path class="link explorador" d="M629.1666666666667,478.44444444444446C671.25,478.44444444444446 671.25,462.46153846153845 713.3333333333334,462.46153846153845"></path>
<path class="link aliados" d="M629.1666666666667,493.44444444444446C671.25,493.44444444444446 671.25,479.46153846153845 713.3333333333334,479.46153846153845"></path>
<path class="link aliados" d="M629.1666666666667,508.44444444444446C671.25,508.44444444444446 671.25,496.46153846153845 713.3333333333334,496.46153846153845"></path>
<path class="link explorador" d="M629.1666666666667,523.4444444444445C671.25,523.4444444444445 671.25,513.4615384615385 713.3333333333334,513.4615384615385"></path>
<path class="link aliados" d="M629.1666666666667,538.4444444444445C671.25,538.4444444444445 671.25,530.4615384615385 713.3333333333334,530.4615384615385"></path>
<path class="link aliados" d="M629.1666666666667,553.4444444444445C671.25,553.4444444444445 671.25,547.4615384615385 713.3333333333334,547.4615384615385"></path>
<path class="link aliados" d="M629.1666666666667,568.4444444444445C671.25,568.4444444444445 671.25,564.4615384615385 713.3333333333334,564.4615384615385"></path>
<path class="link aliados" d="M629.1666666666667,583.4444444444445C671.25,583.4444444444445 671.25,581.4615384615385 713.3333333333334,581.4615384615385"></path>
<path class="link traidor" d="M629.1666666666667,598.4615384615385C671.25,598.4615384615385 671.25,598.4615384615385 713.3333333333334,598.4615384615385"></path>
<path class="link enemigos" d="M777.5000000000001,650.4615384615385C819.5833333333335,650.4615384615385 819.5833333333335,503 861.6666666666667,503"></path>
<path class="link enemigos" d="M777.5000000000001,634.4615384615385C819.5833333333335,634.4615384615385 819.5833333333335,520 861.6666666666667,520"></path>
<path class="link traidor" d="M777.5000000000001,619.4615384615385C819.5833333333335,619.4615384615385 819.5833333333335,537 861.6666666666667,537"></path>
<g class="intro" transform="translate(110,17)">
<rect y="-4" x="-4" width="4" height="8" rx="1" class="explorador">
</rect>
<g class="text">
<text text-anchor="end" y="4px" x="-8px">Magallanes</text>
<text class="color explorador" text-anchor="end" y="4px" x="-8px">Magallanes</text>
</g>
</g>
<g class="intro" transform="translate(110,34)">
<rect y="-4" x="-4" width="4" height="8" rx="1" class="explorador">
</rect>
<g class="text">
<text text-anchor="end" y="4px" x="-8px">Pigafetta</text>
<text class="color explorador" text-anchor="end" y="4px" x="-8px">Pigafetta</text>
</g>
</g>
<g class="intro" transform="translate(333,55)">
<rect y="-4" x="-4" width="4" height="8" rx="1" class="aliados">
</rect>
<g class="text">
<text text-anchor="end" y="4px" x="-8px">pueblo del Verzin</text>
<text class="color aliados" text-anchor="end" y="4px" x="-8px">pueblo del Verzin</text>
</g>
</g>
<g class="intro" transform="translate(333,70)">
<rect y="-4" x="-4" width="4" height="8" rx="1" class="explorador">
</rect>
<g class="text">
<text text-anchor="end" y="4px" x="-8px">Juan Carvajo</text>
<text class="color explorador" text-anchor="end" y="4px" x="-8px">Juan Carvajo</text>
</g>
</g>
<g class="intro" transform="translate(333,85)">
<rect y="-4" x="-4" width="4" height="8" rx="1" class="enemigos">
</rect>
<g class="text">
<text text-anchor="end" y="4px" x="-8px">Juan</text>
<text class="color enemigos" text-anchor="end" y="4px" x="-8px">Juan</text>
</g>
</g>
<g class="intro" transform="translate(333,100)">
<rect y="-4" x="-4" width="4" height="8" rx="1" class="enemigos">
</rect>
<g class="text">
<text text-anchor="end" y="4px" x="-8px">Patagones</text>
<text class="color enemigos" text-anchor="end" y="4px" x="-8px">Patagones</text>
</g>
</g>
<g class="intro" transform="translate(333,115)">
<rect y="-4" x="-4" width="4" height="8" rx="1" class="traidor">
</rect>
<g class="text">
<text text-anchor="end" y="4px" x="-8px">Juan de Cartagena</text>
<text class="color traidor" text-anchor="end" y="4px" x="-8px">Juan de Cartagena</text>
</g>
</g>
<g class="intro" transform="translate(333,130)">
<rect y="-4" x="-4" width="4" height="8" rx="1" class="traidor">
</rect>
<g class="text">
<text text-anchor="end" y="4px" x="-8px">Luis de Mendoza</text>
<text class="color traidor" text-anchor="end" y="4px" x="-8px">Luis de Mendoza</text>
</g>
</g>
<g class="intro" transform="translate(333,145)">
<rect y="-4" x="-4" width="4" height="8" rx="1" class="traidor">
</rect>
<g class="text">
<text text-anchor="end" y="4px" x="-8px">Antonio Coca</text>
<text class="color traidor" text-anchor="end" y="4px" x="-8px">Antonio Coca</text>
</g>
</g>
<g class="intro" transform="translate(333,162)">
<rect y="-4" x="-4" width="4" height="8" rx="1" class="traidor">
</rect>
<g class="text">
<text text-anchor="end" y="4px" x="-8px">Gaspar de Quesada</text>
<text class="color traidor" text-anchor="end" y="4px" x="-8px">Gaspar de Quesada</text>
</g>
</g>
<g class="intro" transform="translate(333,179)">
<rect y="-4" x="-4" width="4" height="8" rx="1" class="traidor">
</rect>
<g class="text">
<text text-anchor="end" y="4px" x="-8px">Pero Sánchez de la Reina</text>
<text class="color traidor" text-anchor="end" y="4px" x="-8px">Pero Sánchez de la Reina</text>
</g>
</g>
<g class="intro" transform="translate(333,196)">
<rect y="-4" x="-4" width="4" height="8" rx="1" class="traidor">
</rect>
<g class="text">
<text text-anchor="end" y="4px" x="-8px">Esteban Gómez</text>
<text class="color traidor" text-anchor="end" y="4px" x="-8px">Esteban Gómez</text>
</g>
</g>
<g class="intro" transform="translate(333,213)">
<rect y="-4" x="-4" width="4" height="8" rx="1" class="explorador">
</rect>
<g class="text">
<text text-anchor="end" y="4px" x="-8px">Juan Serrano</text>
<text class="color explorador" text-anchor="end" y="4px" x="-8px">Juan Serrano</text>
</g>
</g>
<g class="intro" transform="translate(333,230)">
<rect y="-4" x="-4" width="4" height="8" rx="1" class="enemigos">
</rect>
<g class="text">
<text text-anchor="end" y="4px" x="-8px">Pablo</text>
<text class="color enemigos" text-anchor="end" y="4px" x="-8px">Pablo</text>
</g>
</g>
<g class="intro" transform="translate(481,251)">
<rect y="-4" x="-4" width="4" height="8" rx="1" class="aliados">
</rect>
<g class="text">
<text text-anchor="end" y="4px" x="-8px">pueblo de Zuluán</text>
<text class="color aliados" text-anchor="end" y="4px" x="-8px">pueblo de Zuluán</text>
</g>
</g>
<g class="intro" transform="translate(481,266)">
<rect y="-4" x="-4" width="4" height="8" rx="1" class="aliados">
</rect>
<g class="text">
<text text-anchor="end" y="4px" x="-8px">pueblo de Butuán</text>
<text class="color aliados" text-anchor="end" y="4px" x="-8px">pueblo de Butuán</text>
</g>
</g>
<g class="intro" transform="translate(481,281)">
<rect y="-4" x="-4" width="4" height="8" rx="1" class="traidor">
</rect>
<g class="text">
<text text-anchor="end" y="4px" x="-8px">Enrique de Málacca</text>
<text class="color traidor" text-anchor="end" y="4px" x="-8px">Enrique de Málacca</text>
</g>
</g>
<g class="intro" transform="translate(481,296)">
<rect y="-4" x="-4" width="4" height="8" rx="1" class="aliados">
</rect>
<g class="text">
<text text-anchor="end" y="4px" x="-8px">Colambu</text>
<text class="color aliados" text-anchor="end" y="4px" x="-8px">Colambu</text>
</g>
</g>
<g class="intro" transform="translate(481,311)">
<rect y="-4" x="-4" width="4" height="8" rx="1" class="aliados">
</rect>
<g class="text">
<text text-anchor="end" y="4px" x="-8px">Siain</text>
<text class="color aliados" text-anchor="end" y="4px" x="-8px">Siain</text>
</g>
</g>
<g class="intro" transform="translate(481,326)">
<rect y="-4" x="-4" width="4" height="8" rx="1" class="enemigos">
</rect>
<g class="text">
<text text-anchor="end" y="4px" x="-8px">Humabón</text>
<text class="color enemigos" text-anchor="end" y="4px" x="-8px">Humabón</text>
</g>
</g>
<g class="intro" transform="translate(481,341)">
<rect y="-4" x="-4" width="4" height="8" rx="1" class="aliados">
</rect>
<g class="text">
<text text-anchor="end" y="4px" x="-8px">Bendara</text>
<text class="color aliados" text-anchor="end" y="4px" x="-8px">Bendara</text>
</g>
</g>
<g class="intro" transform="translate(481,356)">
<rect y="-4" x="-4" width="4" height="8" rx="1" class="aliados">
</rect>
<g class="text">
<text text-anchor="end" y="4px" x="-8px">Hara Humamay</text>
<text class="color aliados" text-anchor="end" y="4px" x="-8px">Hara Humamay</text>
</g>
</g>
<g class="intro" transform="translate(481,371)">
<rect y="-4" x="-4" width="4" height="8" rx="1" class="aliados">
</rect>
<g class="text">
<text text-anchor="end" y="4px" x="-8px">Zula</text>
<text class="color aliados" text-anchor="end" y="4px" x="-8px">Zula</text>
</g>
</g>
<g class="intro" transform="translate(481,386)">
<rect y="-4" x="-4" width="4" height="8" rx="1" class="enemigos">
</rect>
<g class="text">
<text text-anchor="end" y="4px" x="-8px">Celapulapu</text>
<text class="color enemigos" text-anchor="end" y="4px" x="-8px">Celapulapu</text>
</g>
</g>
<g class="intro" transform="translate(481,401)">
<rect y="-4" x="-4" width="4" height="8" rx="1" class="explorador">
</rect>
<g class="text">
<text text-anchor="end" y="4px" x="-8px">Duarte Barbosa</text>
<text class="color explorador" text-anchor="end" y="4px" x="-8px">Duarte Barbosa</text>
</g>
</g>
<g class="intro" transform="translate(481,416)">
<rect y="-4" x="-4" width="4" height="8" rx="1" class="explorador">
</rect>
<g class="text">
<text text-anchor="end" y="4px" x="-8px">San Martín de Sevilla</text>
<text class="color explorador" text-anchor="end" y="4px" x="-8px">San Martín de Sevilla</text>
</g>
</g>
<g class="intro" transform="translate(481,431)">
<rect y="-4" x="-4" width="4" height="8" rx="1" class="explorador">
</rect>
<g class="text">
<text text-anchor="end" y="4px" x="-8px">Pedro de Valderrama</text>
<text class="color explorador" text-anchor="end" y="4px" x="-8px">Pedro de Valderrama</text>
</g>
</g>
<g class="intro" transform="translate(629,448)">
<rect y="-4" x="-4" width="4" height="8" rx="1" class="aliados">
</rect>
<g class="text">
<text text-anchor="end" y="4px" x="-8px">Abuleis</text>
<text class="color aliados" text-anchor="end" y="4px" x="-8px">Abuleis</text>
</g>
</g>
<g class="intro" transform="translate(629,463)">
<rect y="-4" x="-4" width="4" height="8" rx="1" class="aliados">
</rect>
<g class="text">
<text text-anchor="end" y="4px" x="-8px">Calanao</text>
<text class="color aliados" text-anchor="end" y="4px" x="-8px">Calanao</text>
</g>
</g>
<g class="intro" transform="translate(629,478)">
<rect y="-4" x="-4" width="4" height="8" rx="1" class="explorador">
</rect>
<g class="text">
<text text-anchor="end" y="4px" x="-8px">Francisco Serrano</text>
<text class="color explorador" text-anchor="end" y="4px" x="-8px">Francisco Serrano</text>
</g>
</g>
<g class="intro" transform="translate(629,493)">
<rect y="-4" x="-4" width="4" height="8" rx="1" class="aliados">
</rect>
<g class="text">
<text text-anchor="end" y="4px" x="-8px">Iussu</text>
<text class="color aliados" text-anchor="end" y="4px" x="-8px">Iussu</text>
</g>
</g>
<g class="intro" transform="translate(629,508)">
<rect y="-4" x="-4" width="4" height="8" rx="1" class="aliados">
</rect>
<g class="text">
<text text-anchor="end" y="4px" x="-8px">Manzor</text>
<text class="color aliados" text-anchor="end" y="4px" x="-8px">Manzor</text>
</g>
</g>
<g class="intro" transform="translate(629,523)">
<rect y="-4" x="-4" width="4" height="8" rx="1" class="explorador">
</rect>
<g class="text">
<text text-anchor="end" y="4px" x="-8px">Pedro Alfonso de Lorosa</text>
<text class="color explorador" text-anchor="end" y="4px" x="-8px">Pedro Alfonso de Lorosa</text>
</g>
</g>
<g class="intro" transform="translate(629,538)">
<rect y="-4" x="-4" width="4" height="8" rx="1" class="aliados">
</rect>
<g class="text">
<text text-anchor="end" y="4px" x="-8px">pueblos de Pulaoan</text>
<text class="color aliados" text-anchor="end" y="4px" x="-8px">pueblos de Pulaoan</text>
</g>
</g>
<g class="intro" transform="translate(629,553)">
<rect y="-4" x="-4" width="4" height="8" rx="1" class="aliados">
</rect>
<g class="text">
<text text-anchor="end" y="4px" x="-8px">reina de Mindanao</text>
<text class="color aliados" text-anchor="end" y="4px" x="-8px">reina de Mindanao</text>
</g>
</g>
<g class="intro" transform="translate(629,568)">
<rect y="-4" x="-4" width="4" height="8" rx="1" class="aliados">
</rect>
<g class="text">
<text text-anchor="end" y="4px" x="-8px">rey de Bachian</text>
<text class="color aliados" text-anchor="end" y="4px" x="-8px">rey de Bachian</text>
</g>
</g>
<g class="intro" transform="translate(629,583)">
<rect y="-4" x="-4" width="4" height="8" rx="1" class="aliados">
</rect>
<g class="text">
<text text-anchor="end" y="4px" x="-8px">Siripada</text>
<text class="color aliados" text-anchor="end" y="4px" x="-8px">Siripada</text>
</g>
</g>
<g class="intro" transform="translate(629,598)">
<rect y="-4" x="-4" width="4" height="8" rx="1" class="traidor">
</rect>
<g class="text">
<text text-anchor="end" y="4px" x="-8px">Tristán de Meneses</text>
<text class="color traidor" text-anchor="end" y="4px" x="-8px">Tristán de Meneses</text>
</g>
</g>
<g class="intro" transform="translate(778,650)">
<rect y="-4" x="-4" width="4" height="8" rx="1" class="enemigos">
</rect>
<g class="text">
<text text-anchor="end" y="4px" x="-8px">piloto de Molucas</text>
<text class="color enemigos" text-anchor="end" y="4px" x="-8px">piloto de Molucas</text>
</g>
</g>
<g class="intro" transform="translate(778,634)">
<rect y="-4" x="-4" width="4" height="8" rx="1" class="enemigos">
</rect>
<g class="text">
<text text-anchor="end" y="4px" x="-8px">moros de Borneo</text>
<text class="color enemigos" text-anchor="end" y="4px" x="-8px">moros de Borneo</text>
</g>
</g>
<g class="intro" transform="translate(778,619)">
<rect y="-4" x="-4" width="4" height="8" rx="1" class="traidor">
</rect>
<g class="text">
<text text-anchor="end" y="4px" x="-8px">colonos portugueses</text>
<text class="color traidor" text-anchor="end" y="4px" x="-8px">colonos portugueses</text>
</g>
</g>
</svg>